<svg width="130" height="54" viewBox="0 0 130 54" fill="none" xmlns="http://www.w3.org/2000/svg">
<rect width="129" height="54" transform="translate(0.927979)" fill="url(#paint0_linear_247_33341)"/>
<g clip-path="url(#clip0_247_33341)">
<path d="M40.4513 25.4294L29.9391 14.7728C29.9364 14.2019 29.9338 13.7388 29.9318 13.4089L29.929 12.9856L29.9282 12.8757L29.928 12.8478L29.928 12.8408C29.9282 12.8196 29.9338 12.7993 29.9438 12.7818C29.954 12.764 29.9681 12.7502 29.9841 12.741L29.9842 12.741L29.993 12.7357C30.0093 12.7259 30.0272 12.7209 30.0451 12.7207C30.0629 12.7205 30.0808 12.7251 30.0971 12.7344C30.0972 12.7345 30.0973 12.7345 30.0974 12.7346L44.6538 21.169L40.4513 25.4294Z" fill="white" stroke="white"/>
<path d="M29.7206 27.9947C29.7014 23.7482 29.6816 19.3771 29.6697 16.4811L39.4804 26.4205L29.7577 36.2765C29.7476 33.9601 29.7342 31.0088 29.7206 27.9947Z" fill="white" stroke="white"/>
<path d="M54.1399 26.7845L54.1404 26.7848C54.1584 26.7952 54.1743 26.8107 54.1857 26.8305L54.6185 26.5801L54.1857 26.8305C54.1966 26.8493 54.203 26.8711 54.2037 26.8937C54.203 26.9149 54.1972 26.9352 54.1871 26.9528C54.1764 26.9714 54.1617 26.9859 54.1449 26.9957L54.1432 26.9967L46.4637 31.5318L41.4227 26.4213L45.8227 21.9654L54.1399 26.7845Z" fill="white" stroke="white"/>
<path d="M40.4513 27.418L45.3073 32.3411L30.2154 41.2646C30.2154 41.2646 30.2154 41.2646 30.2154 41.2646C30.1991 41.2742 30.1812 41.279 30.1633 41.279C30.1454 41.279 30.1274 41.2742 30.1111 41.2646L30.1112 41.2645L30.1033 41.26C30.0883 41.2516 30.075 41.2386 30.0654 41.2219C30.0558 41.2051 30.0505 41.1855 30.0507 41.1651L30.0507 41.1651L30.0507 41.1586L29.5507 41.161L30.0507 41.1585L30.0507 41.1585L30.0507 41.1583L30.0507 41.1576L30.0507 41.1547L30.0506 41.1432L30.0504 41.0976L30.0495 40.9194L30.046 40.2382C30.0431 39.6886 30.0389 38.914 30.0334 37.9732L40.4513 27.418Z" fill="white" stroke="white"/>
</g>
<g clip-path="url(#clip1_247_33341)">
<path d="M81.8743 42.6141C81.2296 42.3926 80.585 41.9497 80.1553 41.0638C79.7255 40.6208 79.2957 39.9564 78.6511 39.0705C77.7916 37.7416 76.9321 35.9698 76.2875 34.198C75.6429 32.2047 75.428 30.2114 75.428 28.2181C75.428 26.0034 75.8577 24.2315 76.7172 22.6812C77.3619 21.3523 78.4362 20.4664 79.5106 19.5805C80.585 18.9161 81.8743 18.4732 83.1635 18.4732C83.5933 18.4732 84.023 18.4732 84.6676 18.6946C85.0974 18.6946 85.5272 18.9161 86.1718 19.1376C86.8164 19.3591 87.2462 19.5805 87.461 19.5805C87.8908 19.802 88.3205 19.802 88.5354 19.802C88.7503 19.802 88.9652 19.802 89.3949 19.5805C89.6098 19.5805 90.0395 19.3591 90.4693 19.1376C90.8991 18.9161 91.3288 18.6946 91.7586 18.6946C92.1883 18.6946 92.6181 18.4732 93.0478 18.4732C93.4776 18.4732 94.1222 18.2517 94.5519 18.4732C95.4114 18.4732 96.271 18.6946 97.1305 19.1376C98.4197 19.5805 99.4941 20.6879 100.354 21.7953C100.139 21.7953 99.709 22.0168 99.4941 22.4597C98.8495 23.1242 98.2048 23.7886 97.7751 24.453C97.3453 25.5604 96.9156 26.6678 96.9156 27.9966C96.9156 29.547 97.3453 30.8758 97.99 31.9832C98.4197 32.8691 99.2792 33.5336 99.9238 33.9765C100.568 34.198 100.998 34.4195 101.213 34.6409C101.213 35.0839 100.998 35.7483 100.783 35.9698C100.354 37.2987 99.709 38.1846 99.0643 39.2919C98.4197 40.1779 97.99 40.8423 97.7751 41.0638C97.1305 41.7282 96.7007 42.3926 96.0561 42.6141C95.6263 43.057 94.9817 43.2785 94.1222 43.2785C93.6924 43.2785 93.2627 43.2785 92.8329 43.057C92.6181 43.057 92.1883 42.8356 91.7586 42.6141C91.1139 42.3926 90.8991 42.1711 90.4693 42.1711C90.0395 41.9497 89.3949 41.9497 88.9652 41.9497C88.5354 41.9497 87.8908 41.9497 87.461 42.1711C87.0313 42.1711 86.6015 42.3926 86.1718 42.6141C85.5272 42.8356 85.3123 43.057 85.0974 43.057C84.6676 43.2785 84.2379 43.2785 83.8081 43.2785C83.1635 43.2785 82.5189 43.057 81.8743 42.6141ZM90.8991 17.3658C90.0395 17.8087 89.18 18.0302 88.3205 18.0302C88.1057 17.1443 88.3205 16.2584 88.7503 15.151C89.18 14.2651 89.3949 13.6007 90.0395 12.9362C90.6842 12.2718 91.3288 11.6074 92.1883 11.1644C93.0478 10.7215 93.9073 10.5 94.7668 10.5C94.7668 11.3859 94.5519 12.2718 94.3371 13.3792C94.1222 14.2651 93.4776 14.9295 93.0478 15.594C92.4032 16.4799 91.7586 16.9228 90.8991 17.3658Z" fill="white"/>
</g>
<defs>
<linearGradient id="paint0_linear_247_33341" x1="64.5" y1="0" x2="64.5" y2="54" gradientUnits="userSpaceOnUse">
<stop stop-color="#6E762B"/>
<stop offset="1" stop-color="#6E762B" stop-opacity="0"/>
</linearGradient>
<clipPath id="clip0_247_33341">
<rect width="25" height="29" fill="white" transform="translate(29.428 12.5)"/>
</clipPath>
<clipPath id="clip1_247_33341">
<rect width="26" height="33" fill="white" transform="translate(75.428 10.5)"/>
</clipPath>
</defs>
</svg>
