<svg width="682" height="669" viewBox="0 0 682 669" fill="none" xmlns="http://www.w3.org/2000/svg">
<path d="M75.7876 0.363281H10.7733C5.3046 0.363281 0.871338 4.74603 0.871338 10.1524V74.426C0.871338 79.8324 5.3046 84.2152 10.7733 84.2152H75.7876C81.2563 84.2152 85.6895 79.8324 85.6895 74.426V10.1524C85.6895 4.74603 81.2563 0.363281 75.7876 0.363281Z" fill="#ECECEC" fill-opacity="0.42"/>
<path d="M193.123 0.363281H129.868C124.395 0.363281 119.966 4.74263 119.966 10.1524V74.426C119.966 79.8358 124.395 84.2152 129.868 84.2152H193.123C199.572 84.2152 204.784 79.063 204.784 72.6871V11.9557C204.784 5.57987 199.572 0.427673 193.123 0.427673V0.363281Z" fill="#ECECEC" fill-opacity="0.42"/>
<path d="M313.868 0.363281H248.854C243.385 0.363281 238.952 4.74603 238.952 10.1524V74.426C238.952 79.8324 243.385 84.2152 248.854 84.2152H313.868C319.337 84.2152 323.77 79.8324 323.77 74.426V10.1524C323.77 4.74603 319.337 0.363281 313.868 0.363281Z" fill="#ECECEC" fill-opacity="0.42"/>
<path d="M432.94 0.363281H367.926C362.457 0.363281 358.024 4.74603 358.024 10.1524V74.426C358.024 79.8324 362.457 84.2152 367.926 84.2152H432.94C438.409 84.2152 442.842 79.8324 442.842 74.426V10.1524C442.842 4.74603 438.409 0.363281 432.94 0.363281Z" fill="#ECECEC" fill-opacity="0.42"/>
<path d="M552.342 117.278H487.328C481.859 117.278 477.426 121.661 477.426 127.067V191.341C477.426 196.747 481.859 201.13 487.328 201.13H552.342C557.811 201.13 562.244 196.747 562.244 191.341V127.067C562.244 121.661 557.811 117.278 552.342 117.278Z" fill="#ECECEC" fill-opacity="0.42"/>
<path d="M432.94 117.278H367.926C362.457 117.278 358.024 121.661 358.024 127.067V191.341C358.024 196.747 362.457 201.13 367.926 201.13H432.94C438.409 201.13 442.842 196.747 442.842 191.341V127.067C442.842 121.661 438.409 117.278 432.94 117.278Z" fill="#ECECEC" fill-opacity="0.42"/>
<path d="M313.868 117.278H248.854C243.385 117.278 238.952 121.661 238.952 127.067V191.341C238.952 196.747 243.385 201.13 248.854 201.13H313.868C319.337 201.13 323.77 196.747 323.77 191.341V127.067C323.77 121.661 319.337 117.278 313.868 117.278Z" fill="#ECECEC" fill-opacity="0.42"/>
<path d="M194.882 117.31H131.626C125.177 117.31 119.966 122.462 119.966 128.838V189.569C119.966 195.945 125.177 201.097 131.626 201.097H194.882C200.354 201.097 204.784 196.718 204.784 191.308V127.034C204.784 121.624 200.354 117.245 194.882 117.245V117.31Z" fill="#ECECEC" fill-opacity="0.42"/>
<path d="M75.7876 117.278H10.7733C5.3046 117.278 0.871338 121.661 0.871338 127.067V191.341C0.871338 196.747 5.3046 201.13 10.7733 201.13H75.7876C81.2563 201.13 85.6895 196.747 85.6895 191.341V127.067C85.6895 121.661 81.2563 117.278 75.7876 117.278Z" fill="#ECECEC" fill-opacity="0.42"/>
<path d="M74.0286 234.16H12.5322C6.09209 234.16 0.871338 239.321 0.871338 245.688V306.484C0.871338 312.851 6.09209 318.012 12.5322 318.012H74.0286C80.4688 318.012 85.6895 312.851 85.6895 306.484V245.688C85.6895 239.321 80.4688 234.16 74.0286 234.16Z" fill="#ECECEC" fill-opacity="0.42"/>
<path d="M194.882 234.181H131.626C125.177 234.181 119.966 239.333 119.966 245.709V306.44C119.966 312.816 125.177 317.968 131.626 317.968H194.882C200.354 317.968 204.784 313.589 204.784 308.179V243.905C204.784 238.496 200.354 234.116 194.882 234.116V234.181Z" fill="#ECECEC" fill-opacity="0.42"/>
<path d="M313.868 234.16H248.854C243.385 234.16 238.952 238.543 238.952 243.949V308.223C238.952 313.629 243.385 318.012 248.854 318.012H313.868C319.337 318.012 323.77 313.629 323.77 308.223V243.949C323.77 238.543 319.337 234.16 313.868 234.16Z" fill="#ECECEC" fill-opacity="0.42"/>
<path d="M432.94 234.16H367.926C362.457 234.16 358.024 238.543 358.024 243.949V308.223C358.024 313.629 362.457 318.012 367.926 318.012H432.94C438.409 318.012 442.842 313.629 442.842 308.223V243.949C442.842 238.543 438.409 234.16 432.94 234.16Z" fill="#ECECEC" fill-opacity="0.42"/>
<path d="M552.342 234.16H487.328C481.859 234.16 477.426 238.543 477.426 243.949V308.223C477.426 313.629 481.859 318.012 487.328 318.012H552.342C557.811 318.012 562.244 313.629 562.244 308.223V243.949C562.244 238.543 557.811 234.16 552.342 234.16Z" fill="#ECECEC" fill-opacity="0.42"/>
<path d="M671.393 234.16H606.379C600.91 234.16 596.477 238.543 596.477 243.949V308.223C596.477 313.629 600.91 318.012 606.379 318.012H671.393C676.862 318.012 681.295 313.629 681.295 308.223V243.949C681.295 238.543 676.862 234.16 671.393 234.16Z" fill="#ECECEC" fill-opacity="0.42"/>
<path d="M671.393 351.031H606.379C600.91 351.031 596.477 355.414 596.477 360.82V425.094C596.477 430.5 600.91 434.883 606.379 434.883H671.393C676.862 434.883 681.295 430.5 681.295 425.094V360.82C681.295 355.414 676.862 351.031 671.393 351.031Z" fill="#ECECEC" fill-opacity="0.42"/>
<path d="M552.342 351.031H487.328C481.859 351.031 477.426 355.414 477.426 360.82V425.094C477.426 430.5 481.859 434.883 487.328 434.883H552.342C557.811 434.883 562.244 430.5 562.244 425.094V360.82C562.244 355.414 557.811 351.031 552.342 351.031Z" fill="#ECECEC" fill-opacity="0.42"/>
<path d="M432.94 351.031H367.926C362.457 351.031 358.024 355.414 358.024 360.82V425.094C358.024 430.5 362.457 434.883 367.926 434.883H432.94C438.409 434.883 442.842 430.5 442.842 425.094V360.82C442.842 355.414 438.409 351.031 432.94 351.031Z" fill="#ECECEC" fill-opacity="0.42"/>
<path d="M313.868 351.031H248.854C243.385 351.031 238.952 355.414 238.952 360.82V425.094C238.952 430.5 243.385 434.883 248.854 434.883H313.868C319.337 434.883 323.77 430.5 323.77 425.094V360.82C323.77 355.414 319.337 351.031 313.868 351.031Z" fill="#ECECEC" fill-opacity="0.42"/>
<path d="M194.882 351.062H131.626C125.177 351.062 119.966 356.215 119.966 362.59V423.322C119.966 429.698 125.177 434.85 131.626 434.85H194.882C200.354 434.85 204.784 430.471 204.784 425.061V360.787C204.784 355.377 200.354 350.998 194.882 350.998V351.062Z" fill="#ECECEC" fill-opacity="0.42"/>
<path d="M75.7876 351.031H10.7733C5.3046 351.031 0.871338 355.414 0.871338 360.82V425.094C0.871338 430.5 5.3046 434.883 10.7733 434.883H75.7876C81.2563 434.883 85.6895 430.5 85.6895 425.094V360.82C85.6895 355.414 81.2563 351.031 75.7876 351.031Z" fill="#ECECEC" fill-opacity="0.42"/>
<path d="M75.7876 467.968H10.7733C5.3046 467.968 0.871338 472.351 0.871338 477.757V542.03C0.871338 547.437 5.3046 551.82 10.7733 551.82H75.7876C81.2563 551.82 85.6895 547.437 85.6895 542.03V477.757C85.6895 472.351 81.2563 467.968 75.7876 467.968Z" fill="#ECECEC" fill-opacity="0.42"/>
<path d="M193.108 467.648H129.852C123.403 467.648 118.191 472.801 118.191 479.176V539.908C118.191 546.284 123.403 551.436 129.852 551.436H193.108C198.58 551.436 203.01 547.056 203.01 541.647V477.373C203.01 471.963 198.58 467.584 193.108 467.584V467.648Z" fill="#ECECEC" fill-opacity="0.42"/>
<path d="M313.868 467.968H248.854C243.385 467.968 238.952 472.351 238.952 477.757V542.03C238.952 547.437 243.385 551.82 248.854 551.82H313.868C319.337 551.82 323.77 547.437 323.77 542.03V477.757C323.77 472.351 319.337 467.968 313.868 467.968Z" fill="#ECECEC" fill-opacity="0.42"/>
<path d="M432.94 467.968H367.926C362.457 467.968 358.024 472.351 358.024 477.757V542.03C358.024 547.437 362.457 551.82 367.926 551.82H432.94C438.409 551.82 442.842 547.437 442.842 542.03V477.757C442.842 472.351 438.409 467.968 432.94 467.968Z" fill="#ECECEC" fill-opacity="0.42"/>
<path d="M552.342 467.968H487.328C481.859 467.968 477.426 472.351 477.426 477.757V542.03C477.426 547.437 481.859 551.82 487.328 551.82H552.342C557.811 551.82 562.244 547.437 562.244 542.03V477.757C562.244 472.351 557.811 467.968 552.342 467.968Z" fill="#ECECEC" fill-opacity="0.42"/>
<path d="M432.94 584.784H367.926C362.457 584.784 358.024 589.167 358.024 594.573V658.847C358.024 664.253 362.457 668.636 367.926 668.636H432.94C438.409 668.636 442.842 664.253 442.842 658.847V594.573C442.842 589.167 438.409 584.784 432.94 584.784Z" fill="#ECECEC" fill-opacity="0.42"/>
<path d="M313.868 584.784H248.854C243.385 584.784 238.952 589.167 238.952 594.573V658.847C238.952 664.253 243.385 668.636 248.854 668.636H313.868C319.337 668.636 323.77 664.253 323.77 658.847V594.573C323.77 589.167 319.337 584.784 313.868 584.784Z" fill="#ECECEC" fill-opacity="0.42"/>
<path d="M194.882 584.794H131.626C125.177 584.794 119.966 589.946 119.966 596.322V657.053C119.966 663.429 125.177 668.581 131.626 668.581H194.882C200.354 668.581 204.784 664.202 204.784 658.792V594.519C204.784 589.109 200.354 584.729 194.882 584.729V584.794Z" fill="#ECECEC" fill-opacity="0.42"/>
<path d="M75.7876 584.784H10.7733C5.3046 584.784 0.871338 589.167 0.871338 594.573V658.847C0.871338 664.253 5.3046 668.636 10.7733 668.636H75.7876C81.2563 668.636 85.6895 664.253 85.6895 658.847V594.573C85.6895 589.167 81.2563 584.784 75.7876 584.784Z" fill="#ECECEC" fill-opacity="0.42"/>
</svg>
