<svg width="157" height="44" viewBox="0 0 157 44" fill="none" xmlns="http://www.w3.org/2000/svg">
<path d="M21.4364 13.0532C19.9009 10.6843 17.028 8.99222 12.7683 8.99222C5.78426 8.99222 0.632935 14.0685 0.632935 21.6103C0.632935 29.6356 5.78426 34.2284 12.7683 34.2284C17.028 34.2284 19.7523 32.2463 21.4364 29.9741L21.9812 33.9384H25.498V0.0966893H21.4364V13.0532ZM13.1645 30.6992C8.1618 30.6992 4.79362 26.9767 4.79362 21.6103C4.79362 16.244 8.1618 12.5214 13.1645 12.5214C18.1177 12.5214 21.4859 16.2924 21.4859 21.707C21.4859 26.9767 18.1177 30.6992 13.1645 30.6992Z" fill="white"/>
<path d="M42.3171 34.2284C48.1619 34.2284 52.3226 30.6025 53.3132 25.6713H49.202C48.36 28.8621 45.5862 30.6992 42.0199 30.6992C37.2153 30.6992 34.1938 27.4118 34.0452 22.7223V22.3839H53.6599C53.7094 21.8037 53.759 21.2236 53.759 20.6918C53.5608 13.3916 48.9048 8.99222 41.7722 8.99222C34.6396 8.99222 29.7855 14.1168 29.7855 21.6103C29.7855 29.1522 34.7387 34.2284 42.3171 34.2284ZM34.2929 19.0964C34.6892 15.0837 38.1069 12.4731 41.8218 12.4731C46.032 12.4731 49.0039 14.842 49.4002 19.0964H34.2929Z" fill="white"/>
<path d="M70.4229 8.99222C66.1631 8.99222 63.5875 10.7326 62.1015 12.6181L61.5567 9.28229H58.0399V33.9384H62.1015V21.6103C62.1015 16.0506 64.9744 12.6181 69.7294 12.6181C74.1378 12.6181 76.5649 15.3254 76.5649 20.45V33.9384H80.6265V20.2083C80.6265 12.038 76.1191 8.99222 70.4229 8.99222Z" fill="white"/>
<path d="M84.4109 25.8164C84.51 31.231 89.0174 34.2284 95.5556 34.2284C101.153 34.2284 105.66 31.3761 105.66 26.7833C105.66 21.3203 101.054 20.2567 95.308 19.5798C91.6426 19.1447 88.9679 18.8063 88.9679 16.099C88.9679 13.8267 91.3454 12.3764 94.8622 12.3764C98.3294 12.3764 100.707 14.2619 101.004 16.7758H105.165C104.769 11.6512 100.608 9.04056 94.8622 8.99222C89.166 8.94387 84.9558 11.8929 84.9558 16.389C84.9558 21.5136 89.4632 22.6256 95.1098 23.3024C98.8743 23.7375 101.648 23.9792 101.648 27.0733C101.648 29.3456 99.1219 30.8443 95.5556 30.8443C91.3454 30.8443 88.7202 28.7171 88.5716 25.8164H84.4109Z" fill="white"/>
<path d="M111.895 5.1246C113.381 5.1246 114.52 4.061 114.52 2.5623C114.52 1.0636 113.381 0 111.895 0C110.409 0 109.27 1.0636 109.27 2.5623C109.27 4.061 110.409 5.1246 111.895 5.1246ZM109.815 33.9384H113.877V9.28229H109.815V33.9384Z" fill="white"/>
<path d="M120.969 27.5085C120.969 31.8595 122.703 33.9384 127.557 33.9384H131.965V30.3125H127.953C125.774 30.3125 125.031 29.539 125.031 27.4601V12.9082H131.569V9.28229H125.031V2.36892H120.969V9.28229H116.412V12.9082H120.969V27.5085Z" fill="white"/>
<path d="M142.462 34.0834L141.223 37.0808C140.282 39.4014 139.886 39.9815 137.558 39.9815H133.942V43.6074H138.796C142.363 43.6074 143.304 42.0604 144.889 38.0961L156.529 9.28229H152.22L144.691 28.9588L136.914 9.28229H132.605L142.462 34.0834Z" fill="white"/>
</svg>
