<svg width="195" height="44" viewBox="0 0 195 44" fill="none" xmlns="http://www.w3.org/2000/svg">
<path d="M4.19873 7.03125H1.30075C1.05699 7.03125 0.859375 7.22661 0.859375 7.4676V10.3326C0.859375 10.5735 1.05699 10.7689 1.30075 10.7689H4.19873C4.44249 10.7689 4.6401 10.5735 4.6401 10.3326V7.4676C4.6401 7.22661 4.44249 7.03125 4.19873 7.03125Z" fill="white"/>
<path d="M9.42843 7.03125H6.60886C6.36494 7.03125 6.16748 7.22646 6.16748 7.4676V10.3326C6.16748 10.5737 6.36494 10.7689 6.60886 10.7689H9.42843C9.71591 10.7689 9.94821 10.5392 9.94821 10.2551V7.54798C9.94821 7.26378 9.71591 7.03412 9.42843 7.03412V7.03125Z" fill="white"/>
<path d="M14.8105 7.03125H11.9126C11.6688 7.03125 11.4712 7.22661 11.4712 7.4676V10.3326C11.4712 10.5735 11.6688 10.7689 11.9126 10.7689H14.8105C15.0543 10.7689 15.2519 10.5735 15.2519 10.3326V7.4676C15.2519 7.22661 15.0543 7.03125 14.8105 7.03125Z" fill="white"/>
<path d="M20.1187 7.03125H17.2207C16.9769 7.03125 16.7793 7.22661 16.7793 7.4676V10.3326C16.7793 10.5735 16.9769 10.7689 17.2207 10.7689H20.1187C20.3624 10.7689 20.56 10.5735 20.56 10.3326V7.4676C20.56 7.22661 20.3624 7.03125 20.1187 7.03125Z" fill="white"/>
<path d="M25.4407 12.2427H22.5427C22.2989 12.2427 22.1013 12.438 22.1013 12.679V15.544C22.1013 15.785 22.2989 15.9803 22.5427 15.9803H25.4407C25.6844 15.9803 25.882 15.785 25.882 15.544V12.679C25.882 12.438 25.6844 12.2427 25.4407 12.2427Z" fill="white"/>
<path d="M20.1187 12.2427H17.2207C16.9769 12.2427 16.7793 12.438 16.7793 12.679V15.544C16.7793 15.785 16.9769 15.9803 17.2207 15.9803H20.1187C20.3624 15.9803 20.56 15.785 20.56 15.544V12.679C20.56 12.438 20.3624 12.2427 20.1187 12.2427Z" fill="white"/>
<path d="M14.8105 12.2427H11.9126C11.6688 12.2427 11.4712 12.438 11.4712 12.679V15.544C11.4712 15.785 11.6688 15.9803 11.9126 15.9803H14.8105C15.0543 15.9803 15.2519 15.785 15.2519 15.544V12.679C15.2519 12.438 15.0543 12.2427 14.8105 12.2427Z" fill="white"/>
<path d="M9.50683 12.2441H6.68726C6.39978 12.2441 6.16748 12.4737 6.16748 12.7579V15.465C6.16748 15.7492 6.39978 15.9789 6.68726 15.9789H9.50683C9.75075 15.9789 9.94821 15.7837 9.94821 15.5425V12.6776C9.94821 12.4364 9.75075 12.2412 9.50683 12.2412V12.2441Z" fill="white"/>
<path d="M4.19873 12.2427H1.30075C1.05699 12.2427 0.859375 12.438 0.859375 12.679V15.544C0.859375 15.785 1.05699 15.9803 1.30075 15.9803H4.19873C4.44249 15.9803 4.6401 15.785 4.6401 15.544V12.679C4.6401 12.438 4.44249 12.2427 4.19873 12.2427Z" fill="white"/>
<path d="M4.12033 17.4526H1.37915C1.09209 17.4526 0.859375 17.6827 0.859375 17.9665V20.6764C0.859375 20.9602 1.09209 21.1903 1.37915 21.1903H4.12033C4.40739 21.1903 4.6401 20.9602 4.6401 20.6764V17.9665C4.6401 17.6827 4.40739 17.4526 4.12033 17.4526Z" fill="white"/>
<path d="M9.50683 17.4536H6.68726C6.39978 17.4536 6.16748 17.6832 6.16748 17.9674V20.6745C6.16748 20.9587 6.39978 21.1883 6.68726 21.1883H9.50683C9.75075 21.1883 9.94821 20.9931 9.94821 20.752V17.887C9.94821 17.6459 9.75075 17.4507 9.50683 17.4507V17.4536Z" fill="white"/>
<path d="M14.8105 17.4526H11.9126C11.6688 17.4526 11.4712 17.648 11.4712 17.889V20.7539C11.4712 20.9949 11.6688 21.1903 11.9126 21.1903H14.8105C15.0543 21.1903 15.2519 20.9949 15.2519 20.7539V17.889C15.2519 17.648 15.0543 17.4526 14.8105 17.4526Z" fill="white"/>
<path d="M20.1187 17.4526H17.2207C16.9769 17.4526 16.7793 17.648 16.7793 17.889V20.7539C16.7793 20.9949 16.9769 21.1903 17.2207 21.1903H20.1187C20.3624 21.1903 20.56 20.9949 20.56 20.7539V17.889C20.56 17.648 20.3624 17.4526 20.1187 17.4526Z" fill="white"/>
<path d="M25.4407 17.4526H22.5427C22.2989 17.4526 22.1013 17.648 22.1013 17.889V20.7539C22.1013 20.9949 22.2989 21.1903 22.5427 21.1903H25.4407C25.6844 21.1903 25.882 20.9949 25.882 20.7539V17.889C25.882 17.648 25.6844 17.4526 25.4407 17.4526Z" fill="white"/>
<path d="M30.7478 17.4526H27.8498C27.6061 17.4526 27.4084 17.648 27.4084 17.889V20.7539C27.4084 20.9949 27.6061 21.1903 27.8498 21.1903H30.7478C30.9916 21.1903 31.1892 20.9949 31.1892 20.7539V17.889C31.1892 17.648 30.9916 17.4526 30.7478 17.4526Z" fill="white"/>
<path d="M30.7478 22.6621H27.8498C27.6061 22.6621 27.4084 22.8575 27.4084 23.0985V25.9634C27.4084 26.2044 27.6061 26.3998 27.8498 26.3998H30.7478C30.9916 26.3998 31.1892 26.2044 31.1892 25.9634V23.0985C31.1892 22.8575 30.9916 22.6621 30.7478 22.6621Z" fill="white"/>
<path d="M25.4407 22.6621H22.5427C22.2989 22.6621 22.1013 22.8575 22.1013 23.0985V25.9634C22.1013 26.2044 22.2989 26.3998 22.5427 26.3998H25.4407C25.6844 26.3998 25.882 26.2044 25.882 25.9634V23.0985C25.882 22.8575 25.6844 22.6621 25.4407 22.6621Z" fill="white"/>
<path d="M20.1187 22.6621H17.2207C16.9769 22.6621 16.7793 22.8575 16.7793 23.0985V25.9634C16.7793 26.2044 16.9769 26.3998 17.2207 26.3998H20.1187C20.3624 26.3998 20.56 26.2044 20.56 25.9634V23.0985C20.56 22.8575 20.3624 22.6621 20.1187 22.6621Z" fill="white"/>
<path d="M14.8105 22.6621H11.9126C11.6688 22.6621 11.4712 22.8575 11.4712 23.0985V25.9634C11.4712 26.2044 11.6688 26.3998 11.9126 26.3998H14.8105C15.0543 26.3998 15.2519 26.2044 15.2519 25.9634V23.0985C15.2519 22.8575 15.0543 22.6621 14.8105 22.6621Z" fill="white"/>
<path d="M9.50683 22.6635H6.68726C6.39978 22.6635 6.16748 22.8932 6.16748 23.1774V25.8844C6.16748 26.1686 6.39978 26.3983 6.68726 26.3983H9.50683C9.75075 26.3983 9.94821 26.2031 9.94821 25.962V23.097C9.94821 22.8559 9.75075 22.6606 9.50683 22.6606V22.6635Z" fill="white"/>
<path d="M4.19873 22.6621H1.30075C1.05699 22.6621 0.859375 22.8575 0.859375 23.0985V25.9634C0.859375 26.2044 1.05699 26.3998 1.30075 26.3998H4.19873C4.44249 26.3998 4.6401 26.2044 4.6401 25.9634V23.0985C4.6401 22.8575 4.44249 22.6621 4.19873 22.6621Z" fill="white"/>
<path d="M4.19873 27.8745H1.30075C1.05699 27.8745 0.859375 28.0699 0.859375 28.3109V31.1758C0.859375 31.4168 1.05699 31.6122 1.30075 31.6122H4.19873C4.44249 31.6122 4.6401 31.4168 4.6401 31.1758V28.3109C4.6401 28.0699 4.44249 27.8745 4.19873 27.8745Z" fill="white"/>
<path d="M9.42846 27.8603H6.60889C6.32141 27.8603 6.08911 28.0899 6.08911 28.3741V31.0812C6.08911 31.3654 6.32141 31.5951 6.60889 31.5951H9.42846C9.67238 31.5951 9.86984 31.3999 9.86984 31.1587V28.2938C9.86984 28.0526 9.67238 27.8574 9.42846 27.8574V27.8603Z" fill="white"/>
<path d="M14.8105 27.8745H11.9126C11.6688 27.8745 11.4712 28.0699 11.4712 28.3109V31.1758C11.4712 31.4168 11.6688 31.6122 11.9126 31.6122H14.8105C15.0543 31.6122 15.2519 31.4168 15.2519 31.1758V28.3109C15.2519 28.0699 15.0543 27.8745 14.8105 27.8745Z" fill="white"/>
<path d="M20.1187 27.8745H17.2207C16.9769 27.8745 16.7793 28.0699 16.7793 28.3109V31.1758C16.7793 31.4168 16.9769 31.6122 17.2207 31.6122H20.1187C20.3624 31.6122 20.56 31.4168 20.56 31.1758V28.3109C20.56 28.0699 20.3624 27.8745 20.1187 27.8745Z" fill="white"/>
<path d="M25.4407 27.8745H22.5427C22.2989 27.8745 22.1013 28.0699 22.1013 28.3109V31.1758C22.1013 31.4168 22.2989 31.6122 22.5427 31.6122H25.4407C25.6844 31.6122 25.882 31.4168 25.882 31.1758V28.3109C25.882 28.0699 25.6844 27.8745 25.4407 27.8745Z" fill="white"/>
<path d="M20.1187 33.0815H17.2207C16.9769 33.0815 16.7793 33.2769 16.7793 33.5179V36.3829C16.7793 36.6238 16.9769 36.8192 17.2207 36.8192H20.1187C20.3624 36.8192 20.56 36.6238 20.56 36.3829V33.5179C20.56 33.2769 20.3624 33.0815 20.1187 33.0815Z" fill="white"/>
<path d="M14.8105 33.0815H11.9126C11.6688 33.0815 11.4712 33.2769 11.4712 33.5179V36.3829C11.4712 36.6238 11.6688 36.8192 11.9126 36.8192H14.8105C15.0543 36.8192 15.2519 36.6238 15.2519 36.3829V33.5179C15.2519 33.2769 15.0543 33.0815 14.8105 33.0815Z" fill="white"/>
<path d="M9.50683 33.082H6.68726C6.39978 33.082 6.16748 33.3116 6.16748 33.5958V36.3029C6.16748 36.5871 6.39978 36.8168 6.68726 36.8168H9.50683C9.75075 36.8168 9.94821 36.6215 9.94821 36.3804V33.5154C9.94821 33.2743 9.75075 33.0791 9.50683 33.0791V33.082Z" fill="white"/>
<path d="M4.19873 33.0815H1.30075C1.05699 33.0815 0.859375 33.2769 0.859375 33.5179V36.3829C0.859375 36.6238 1.05699 36.8192 1.30075 36.8192H4.19873C4.44249 36.8192 4.6401 36.6238 4.6401 36.3829V33.5179C4.6401 33.2769 4.44249 33.0815 4.19873 33.0815Z" fill="white"/>
<path d="M59.4362 13.1733C57.9008 10.8044 55.0279 9.11233 50.7682 9.11233C43.7841 9.11233 38.6328 14.1886 38.6328 21.7304C38.6328 29.7558 43.7841 34.3486 50.7682 34.3486C55.0279 34.3486 57.7522 32.3664 59.4362 30.0942L59.9811 34.0585H63.4979V0.216806H59.4362V13.1733ZM51.1644 30.8194C46.1617 30.8194 42.7935 27.0968 42.7935 21.7304C42.7935 16.3641 46.1617 12.6415 51.1644 12.6415C56.1176 12.6415 59.4858 16.4125 59.4858 21.8271C59.4858 27.0968 56.1176 30.8194 51.1644 30.8194Z" fill="white"/>
<path d="M80.317 34.3486C86.1617 34.3486 90.3224 30.7227 91.3131 25.7914H87.2019C86.3599 28.9822 83.5861 30.8194 80.0198 30.8194C75.2152 30.8194 72.1937 27.5319 72.0451 22.8424V22.504H91.6598C91.7093 21.9238 91.7589 21.3437 91.7589 20.8119C91.5607 13.5118 86.9047 9.11233 79.7721 9.11233C72.6395 9.11233 67.7854 14.2369 67.7854 21.7304C67.7854 29.2723 72.7386 34.3486 80.317 34.3486ZM72.2928 19.2165C72.689 15.2038 76.1067 12.5932 79.8216 12.5932C84.0319 12.5932 87.0038 14.9621 87.4 19.2165H72.2928Z" fill="white"/>
<path d="M108.423 9.11233C104.163 9.11233 101.587 10.8528 100.101 12.7382L99.5565 9.40241H96.0398V34.0585H100.101V21.7304C100.101 16.1707 102.974 12.7382 107.729 12.7382C112.138 12.7382 114.565 15.4456 114.565 20.5702V34.0585H118.626V20.3284C118.626 12.1581 114.119 9.11233 108.423 9.11233Z" fill="white"/>
<path d="M122.411 25.9365C122.51 31.3512 127.017 34.3486 133.556 34.3486C139.153 34.3486 143.66 31.4962 143.66 26.9034C143.66 21.4404 139.054 20.3768 133.308 19.6999C129.642 19.2648 126.968 18.9264 126.968 16.2191C126.968 13.9469 129.345 12.4965 132.862 12.4965C136.329 12.4965 138.707 14.382 139.004 16.8959H143.165C142.768 11.7713 138.608 9.16068 132.862 9.11233C127.166 9.06399 122.956 12.0131 122.956 16.5092C122.956 21.6338 127.463 22.7457 133.11 23.4225C136.874 23.8576 139.648 24.0994 139.648 27.1935C139.648 29.4657 137.122 30.9644 133.556 30.9644C129.345 30.9644 126.72 28.8372 126.572 25.9365H122.411Z" fill="white"/>
<path d="M149.895 5.24471C151.381 5.24471 152.52 4.18112 152.52 2.68241C152.52 1.18371 151.381 0.120117 149.895 0.120117C148.409 0.120117 147.27 1.18371 147.27 2.68241C147.27 4.18112 148.409 5.24471 149.895 5.24471ZM147.815 34.0585H151.876V9.40241H147.815V34.0585Z" fill="white"/>
<path d="M158.969 27.6286C158.969 31.9796 160.703 34.0585 165.557 34.0585H169.965V30.4326H165.953C163.774 30.4326 163.031 29.6591 163.031 27.5802V13.0283H169.569V9.40241H163.031V2.48903H158.969V9.40241H154.412V13.0283H158.969V27.6286Z" fill="white"/>
<path d="M180.462 34.2035L179.223 37.2009C178.282 39.5215 177.886 40.1016 175.558 40.1016H171.942V43.7275H176.796C180.363 43.7275 181.304 42.1805 182.889 38.2162L194.529 9.40241H190.219L182.691 29.0789L174.914 9.40241H170.605L180.462 34.2035Z" fill="white"/>
</svg>
