<svg width="524" height="131" viewBox="0 0 524 131" fill="none" xmlns="http://www.w3.org/2000/svg">
<path d="M14.562 45.743C10.346 45.743 6.95667 44.565 4.394 42.209C1.87267 39.8117 0.612 36.4224 0.612 32.041H8.548C8.58933 34.0664 9.06467 35.6784 9.974 36.877C10.8833 38.0757 12.3507 38.675 14.376 38.675C16.2773 38.675 17.662 38.117 18.53 37.001C19.398 35.8437 19.832 34.335 19.832 32.475V1.59902H27.768V32.475C27.768 36.7324 26.5693 40.0184 24.172 42.333C21.816 44.6064 18.6127 45.743 14.562 45.743ZM50.784 45.743C47.808 45.743 45.1214 45.061 42.724 43.697C40.368 42.333 38.4874 40.4524 37.082 38.055C35.718 35.6164 35.036 32.8057 35.036 29.623C35.036 26.4404 35.7387 23.6504 37.144 21.253C38.5494 18.8144 40.43 16.913 42.786 15.549C45.1834 14.185 47.87 13.503 50.846 13.503C53.7807 13.503 56.426 14.185 58.782 15.549C61.1794 16.913 63.06 18.8144 64.424 21.253C65.8294 23.6504 66.532 26.4404 66.532 29.623C66.532 32.8057 65.8294 35.6164 64.424 38.055C63.06 40.4524 61.1794 42.333 58.782 43.697C56.3847 45.061 53.7187 45.743 50.784 45.743ZM50.784 38.861C52.8507 38.861 54.6487 38.0964 56.178 36.567C57.7074 34.9964 58.472 32.6817 58.472 29.623C58.472 26.5644 57.7074 24.2704 56.178 22.741C54.6487 21.1704 52.8714 20.385 50.846 20.385C48.738 20.385 46.9194 21.1704 45.39 22.741C43.902 24.2704 43.158 26.5644 43.158 29.623C43.158 32.6817 43.902 34.9964 45.39 36.567C46.9194 38.0964 48.7174 38.861 50.784 38.861ZM77.9057 9.47302C76.459 9.47302 75.2603 9.03902 74.3097 8.17102C73.4003 7.30302 72.9457 6.20769 72.9457 4.88502C72.9457 3.56236 73.4003 2.48769 74.3097 1.66102C75.2603 0.793021 76.459 0.359022 77.9057 0.359022C79.3523 0.359022 80.5303 0.793021 81.4397 1.66102C82.3903 2.48769 82.8657 3.56236 82.8657 4.88502C82.8657 6.20769 82.3903 7.30302 81.4397 8.17102C80.5303 9.03902 79.3523 9.47302 77.9057 9.47302ZM73.9377 44.999V14.247H81.8737V44.999H73.9377ZM90.157 44.999V14.247H97.163L97.783 19.455C98.7336 17.6364 100.098 16.1897 101.875 15.115C103.694 14.0404 105.822 13.503 108.261 13.503C112.064 13.503 115.019 14.7017 117.127 17.099C119.235 19.4964 120.289 23.0097 120.289 27.639V44.999H112.353V28.383C112.353 25.7377 111.816 23.7124 110.741 22.307C109.666 20.9017 107.992 20.199 105.719 20.199C103.487 20.199 101.648 20.9844 100.201 22.555C98.7956 24.1257 98.093 26.3164 98.093 29.127V44.999H90.157ZM156.353 44.999C153.129 44.999 150.546 44.2137 148.603 42.643C146.66 41.0724 145.689 38.2824 145.689 34.273V20.881H140.419V14.247H145.689L146.619 6.00102H153.625V14.247H161.933V20.881H153.625V34.335C153.625 35.823 153.935 36.8564 154.555 37.435C155.216 37.9724 156.332 38.241 157.903 38.241H161.747V44.999H156.353ZM168.747 44.999V0.359022H176.683V18.959C177.716 17.2644 179.101 15.9417 180.837 14.991C182.614 13.999 184.639 13.503 186.913 13.503C190.715 13.503 193.65 14.7017 195.717 17.099C197.825 19.4964 198.879 23.0097 198.879 27.639V44.999H191.005V28.383C191.005 25.7377 190.467 23.7124 189.393 22.307C188.359 20.9017 186.706 20.199 184.433 20.199C182.201 20.199 180.341 20.9844 178.853 22.555C177.406 24.1257 176.683 26.3164 176.683 29.127V44.999H168.747ZM221.41 45.743C218.31 45.743 215.561 45.0817 213.164 43.759C210.766 42.4364 208.886 40.5764 207.522 38.179C206.158 35.7817 205.476 33.0124 205.476 29.871C205.476 26.6884 206.137 23.857 207.46 21.377C208.824 18.897 210.684 16.975 213.04 15.611C215.437 14.2057 218.248 13.503 221.472 13.503C224.489 13.503 227.155 14.1644 229.47 15.487C231.784 16.8097 233.582 18.6284 234.864 20.943C236.186 23.2164 236.848 25.7584 236.848 28.569C236.848 29.0237 236.827 29.499 236.786 29.995C236.786 30.491 236.765 31.0077 236.724 31.545H213.35C213.515 33.9424 214.342 35.823 215.83 37.187C217.359 38.551 219.198 39.233 221.348 39.233C222.96 39.233 224.303 38.8817 225.378 38.179C226.494 37.435 227.32 36.4844 227.858 35.327H235.918C235.339 37.2697 234.368 39.047 233.004 40.659C231.681 42.2297 230.028 43.4697 228.044 44.379C226.101 45.2884 223.89 45.743 221.41 45.743ZM221.472 19.951C219.529 19.951 217.814 20.509 216.326 21.625C214.838 22.6997 213.887 24.353 213.474 26.585H228.788C228.664 24.5597 227.92 22.9477 226.556 21.749C225.192 20.5504 223.497 19.951 221.472 19.951ZM258.482 44.999V1.59902H286.506V7.98502H266.418V20.137H282.662V26.399H266.418V44.999H258.482ZM303.976 45.743C300.132 45.743 297.156 44.5444 295.048 42.147C292.981 39.7497 291.948 36.2364 291.948 31.607V14.247H299.822V30.863C299.822 33.5084 300.359 35.5337 301.434 36.939C302.509 38.3444 304.203 39.047 306.518 39.047C308.709 39.047 310.507 38.2617 311.912 36.691C313.359 35.1204 314.082 32.9297 314.082 30.119V14.247H322.018V44.999H315.012L314.392 39.791C313.441 41.6097 312.057 43.0564 310.238 44.131C308.461 45.2057 306.373 45.743 303.976 45.743ZM343.867 44.999C340.643 44.999 338.059 44.2137 336.117 42.643C334.174 41.0724 333.203 38.2824 333.203 34.273V20.881H327.933V14.247H333.203L334.133 6.00102H341.139V14.247H349.447V20.881H341.139V34.335C341.139 35.823 341.449 36.8564 342.069 37.435C342.73 37.9724 343.846 38.241 345.417 38.241H349.261V44.999H343.867ZM367.792 45.743C363.948 45.743 360.972 44.5444 358.864 42.147C356.798 39.7497 355.764 36.2364 355.764 31.607V14.247H363.638V30.863C363.638 33.5084 364.176 35.5337 365.25 36.939C366.325 38.3444 368.02 39.047 370.334 39.047C372.525 39.047 374.323 38.2617 375.728 36.691C377.175 35.1204 377.898 32.9297 377.898 30.119V14.247H385.834V44.999H378.828L378.208 39.791C377.258 41.6097 375.873 43.0564 374.054 44.131C372.277 45.2057 370.19 45.743 367.792 45.743ZM393.981 44.999V14.247H401.049L401.793 20.013C402.909 18.029 404.418 16.4584 406.319 15.301C408.262 14.1024 410.535 13.503 413.139 13.503V21.873H410.907C409.171 21.873 407.621 22.1417 406.257 22.679C404.893 23.2164 403.819 24.1464 403.033 25.469C402.289 26.7917 401.917 28.631 401.917 30.987V44.999H393.981ZM432.96 45.743C429.86 45.743 427.112 45.0817 424.714 43.759C422.317 42.4364 420.436 40.5764 419.072 38.179C417.708 35.7817 417.026 33.0124 417.026 29.871C417.026 26.6884 417.688 23.857 419.01 21.377C420.374 18.897 422.234 16.975 424.59 15.611C426.988 14.2057 429.798 13.503 433.022 13.503C436.04 13.503 438.706 14.1644 441.02 15.487C443.335 16.8097 445.133 18.6284 446.414 20.943C447.737 23.2164 448.398 25.7584 448.398 28.569C448.398 29.0237 448.378 29.499 448.336 29.995C448.336 30.491 448.316 31.0077 448.274 31.545H424.9C425.066 33.9424 425.892 35.823 427.38 37.187C428.91 38.551 430.749 39.233 432.898 39.233C434.51 39.233 435.854 38.8817 436.928 38.179C438.044 37.435 438.871 36.4844 439.408 35.327H447.468C446.89 37.2697 445.918 39.047 444.554 40.659C443.232 42.2297 441.578 43.4697 439.594 44.379C437.652 45.2884 435.44 45.743 432.96 45.743ZM433.022 19.951C431.08 19.951 429.364 20.509 427.876 21.625C426.388 22.6997 425.438 24.353 425.024 26.585H440.338C440.214 24.5597 439.47 22.9477 438.106 21.749C436.742 20.5504 435.048 19.951 433.022 19.951ZM484.602 45.743C481.626 45.743 478.94 45.061 476.542 43.697C474.186 42.333 472.306 40.4524 470.9 38.055C469.536 35.6164 468.854 32.8057 468.854 29.623C468.854 26.4404 469.557 23.6504 470.962 21.253C472.368 18.8144 474.248 16.913 476.604 15.549C479.002 14.185 481.688 13.503 484.664 13.503C487.599 13.503 490.244 14.185 492.6 15.549C494.998 16.913 496.878 18.8144 498.242 21.253C499.648 23.6504 500.35 26.4404 500.35 29.623C500.35 32.8057 499.648 35.6164 498.242 38.055C496.878 40.4524 494.998 42.333 492.6 43.697C490.203 45.061 487.537 45.743 484.602 45.743ZM484.602 38.861C486.669 38.861 488.467 38.0964 489.996 36.567C491.526 34.9964 492.29 32.6817 492.29 29.623C492.29 26.5644 491.526 24.2704 489.996 22.741C488.467 21.1704 486.69 20.385 484.664 20.385C482.556 20.385 480.738 21.1704 479.208 22.741C477.72 24.2704 476.976 26.5644 476.976 29.623C476.976 32.6817 477.72 34.9964 479.208 36.567C480.738 38.0964 482.536 38.861 484.602 38.861ZM508.872 44.999V20.881H504.656V14.247H508.872V10.651C508.872 6.93102 509.802 4.28569 511.662 2.71502C513.563 1.14435 516.126 0.359022 519.35 0.359022H522.76V7.11702H520.59C519.226 7.11702 518.255 7.38569 517.676 7.92302C517.097 8.46035 516.808 9.36969 516.808 10.651V14.247H523.442V20.881H516.808V44.999H508.872ZM3.216 115.999V72.599H31.24V78.985H11.152V91.137H27.396V97.399H11.152V115.999H3.216ZM48.7104 116.743C44.8664 116.743 41.8904 115.544 39.7824 113.147C37.7158 110.75 36.6824 107.236 36.6824 102.607V85.247H44.5564V101.863C44.5564 104.508 45.0938 106.534 46.1684 107.939C47.2431 109.344 48.9378 110.047 51.2524 110.047C53.4431 110.047 55.2411 109.262 56.6464 107.691C58.0931 106.12 58.8164 103.93 58.8164 101.119V85.247H66.7524V115.999H59.7464L59.1264 110.791C58.1758 112.61 56.7911 114.056 54.9724 115.131C53.1951 116.206 51.1078 116.743 48.7104 116.743ZM88.6011 115.999C85.3771 115.999 82.7938 115.214 80.8511 113.643C78.9085 112.072 77.9371 109.282 77.9371 105.273V91.881H72.6671V85.247H77.9371L78.8671 77.001H85.8731V85.247H94.1811V91.881H85.8731V105.335C85.8731 106.823 86.1831 107.856 86.8031 108.435C87.4645 108.972 88.5805 109.241 90.1511 109.241H93.9951V115.999H88.6011ZM112.527 116.743C108.683 116.743 105.707 115.544 103.599 113.147C101.532 110.75 100.499 107.236 100.499 102.607V85.247H108.373V101.863C108.373 104.508 108.91 106.534 109.985 107.939C111.06 109.344 112.754 110.047 115.069 110.047C117.26 110.047 119.058 109.262 120.463 107.691C121.91 106.12 122.633 103.93 122.633 101.119V85.247H130.569V115.999H123.563L122.943 110.791C121.992 112.61 120.608 114.056 118.789 115.131C117.012 116.206 114.924 116.743 112.527 116.743ZM138.716 115.999V85.247H145.784L146.528 91.013C147.644 89.029 149.152 87.4584 151.054 86.301C152.996 85.1024 155.27 84.503 157.874 84.503V92.873H155.642C153.906 92.873 152.356 93.1417 150.992 93.679C149.628 94.2164 148.553 95.1464 147.768 96.469C147.024 97.7917 146.652 99.631 146.652 101.987V115.999H138.716ZM177.695 116.743C174.595 116.743 171.846 116.082 169.449 114.759C167.051 113.436 165.171 111.576 163.807 109.179C162.443 106.782 161.761 104.012 161.761 100.871C161.761 97.6884 162.422 94.857 163.745 92.377C165.109 89.897 166.969 87.975 169.325 86.611C171.722 85.2057 174.533 84.503 177.757 84.503C180.774 84.503 183.44 85.1644 185.755 86.487C188.069 87.8097 189.867 89.6284 191.149 91.943C192.471 94.2164 193.133 96.7584 193.133 99.569C193.133 100.024 193.112 100.499 193.071 100.995C193.071 101.491 193.05 102.008 193.009 102.545H169.635C169.8 104.942 170.627 106.823 172.115 108.187C173.644 109.551 175.483 110.233 177.633 110.233C179.245 110.233 180.588 109.882 181.663 109.179C182.779 108.435 183.605 107.484 184.143 106.327H192.203C191.624 108.27 190.653 110.047 189.289 111.659C187.966 113.23 186.313 114.47 184.329 115.379C182.386 116.288 180.175 116.743 177.695 116.743ZM177.757 90.951C175.814 90.951 174.099 91.509 172.611 92.625C171.123 93.6997 170.172 95.353 169.759 97.585H185.073C184.949 95.5597 184.205 93.9477 182.841 92.749C181.477 91.5504 179.782 90.951 177.757 90.951ZM212.517 116.743C209.789 116.743 207.392 116.309 205.325 115.441C203.259 114.532 201.605 113.292 200.365 111.721C199.125 110.15 198.381 108.332 198.133 106.265H206.131C206.379 107.464 207.041 108.497 208.115 109.365C209.231 110.192 210.657 110.605 212.393 110.605C214.129 110.605 215.39 110.254 216.175 109.551C217.002 108.848 217.415 108.042 217.415 107.133C217.415 105.81 216.837 104.922 215.679 104.467C214.522 103.971 212.91 103.496 210.843 103.041C209.521 102.752 208.177 102.4 206.813 101.987C205.449 101.574 204.189 101.057 203.031 100.437C201.915 99.7757 201.006 98.949 200.303 97.957C199.601 96.9237 199.249 95.663 199.249 94.175C199.249 91.447 200.324 89.153 202.473 87.293C204.664 85.433 207.723 84.503 211.649 84.503C215.287 84.503 218.18 85.3504 220.329 87.045C222.52 88.7397 223.822 91.075 224.235 94.051H216.733C216.279 91.7777 214.563 90.641 211.587 90.641C210.099 90.641 208.942 90.9304 208.115 91.509C207.33 92.0877 206.937 92.811 206.937 93.679C206.937 94.5884 207.537 95.3117 208.735 95.849C209.934 96.3864 211.525 96.8824 213.509 97.337C215.659 97.833 217.622 98.391 219.399 99.011C221.218 99.5897 222.665 100.478 223.739 101.677C224.814 102.834 225.351 104.508 225.351 106.699C225.393 108.6 224.897 110.316 223.863 111.845C222.83 113.374 221.342 114.573 219.399 115.441C217.457 116.309 215.163 116.743 212.517 116.743ZM257.447 115.999V78.985H244.799V72.599H278.093V78.985H265.383V115.999H257.447ZM280.759 115.999V85.247H287.827L288.571 91.013C289.687 89.029 291.195 87.4584 293.097 86.301C295.039 85.1024 297.313 84.503 299.917 84.503V92.873H297.685C295.949 92.873 294.399 93.1417 293.035 93.679C291.671 94.2164 290.596 95.1464 289.811 96.469C289.067 97.7917 288.695 99.631 288.695 101.987V115.999H280.759ZM315.943 116.743C313.297 116.743 311.127 116.33 309.433 115.503C307.738 114.635 306.477 113.498 305.651 112.093C304.824 110.688 304.411 109.138 304.411 107.443C304.411 104.591 305.527 102.276 307.759 100.499C309.991 98.7217 313.339 97.833 317.803 97.833H325.615V97.089C325.615 94.981 325.015 93.431 323.817 92.439C322.618 91.447 321.13 90.951 319.353 90.951C317.741 90.951 316.335 91.3437 315.137 92.129C313.938 92.873 313.194 93.989 312.905 95.477H305.155C305.361 93.245 306.105 91.3024 307.387 89.649C308.709 87.9957 310.404 86.735 312.471 85.867C314.537 84.9577 316.852 84.503 319.415 84.503C323.796 84.503 327.247 85.5984 329.769 87.789C332.29 89.9797 333.551 93.0797 333.551 97.089V115.999H326.793L326.049 111.039C325.139 112.692 323.858 114.056 322.205 115.131C320.593 116.206 318.505 116.743 315.943 116.743ZM317.741 110.543C320.014 110.543 321.771 109.799 323.011 108.311C324.292 106.823 325.098 104.984 325.429 102.793H318.671C316.563 102.793 315.054 103.186 314.145 103.971C313.235 104.715 312.781 105.645 312.781 106.761C312.781 107.96 313.235 108.89 314.145 109.551C315.054 110.212 316.253 110.543 317.741 110.543ZM355.26 116.743C352.366 116.743 349.783 116.04 347.51 114.635C345.236 113.23 343.438 111.308 342.116 108.869C340.793 106.43 340.132 103.661 340.132 100.561C340.132 97.461 340.793 94.7124 342.116 92.315C343.438 89.8764 345.236 87.975 347.51 86.611C349.783 85.2057 352.366 84.503 355.26 84.503C357.574 84.503 359.6 84.937 361.336 85.805C363.072 86.673 364.477 87.8924 365.552 89.463V71.359H373.488V115.999H366.42L365.552 111.597C364.56 112.961 363.237 114.16 361.584 115.193C359.972 116.226 357.864 116.743 355.26 116.743ZM356.934 109.799C359.496 109.799 361.584 108.952 363.196 107.257C364.849 105.521 365.676 103.31 365.676 100.623C365.676 97.9364 364.849 95.7457 363.196 94.051C361.584 92.315 359.496 91.447 356.934 91.447C354.412 91.447 352.325 92.2944 350.672 93.989C349.018 95.6837 348.192 97.8744 348.192 100.561C348.192 103.248 349.018 105.459 350.672 107.195C352.325 108.931 354.412 109.799 356.934 109.799ZM385.847 80.473C384.4 80.473 383.202 80.039 382.251 79.171C381.342 78.303 380.887 77.2077 380.887 75.885C380.887 74.5624 381.342 73.4877 382.251 72.661C383.202 71.793 384.4 71.359 385.847 71.359C387.294 71.359 388.472 71.793 389.381 72.661C390.332 73.4877 390.807 74.5624 390.807 75.885C390.807 77.2077 390.332 78.303 389.381 79.171C388.472 80.039 387.294 80.473 385.847 80.473ZM381.879 115.999V85.247H389.815V115.999H381.879ZM398.098 115.999V85.247H405.104L405.724 90.455C406.675 88.6364 408.039 87.1897 409.816 86.115C411.635 85.0404 413.764 84.503 416.202 84.503C420.005 84.503 422.96 85.7017 425.068 88.099C427.176 90.4964 428.23 94.0097 428.23 98.639V115.999H420.294V99.383C420.294 96.7377 419.757 94.7124 418.682 93.307C417.608 91.9017 415.934 91.199 413.66 91.199C411.428 91.199 409.589 91.9844 408.142 93.555C406.737 95.1257 406.034 97.3164 406.034 100.127V115.999H398.098ZM448.839 106.823C447.351 106.823 445.966 106.658 444.685 106.327L442.391 108.621C443.094 108.993 444.044 109.303 445.243 109.551C446.442 109.799 448.384 110.047 451.071 110.295C455.163 110.667 458.139 111.638 459.999 113.209C461.859 114.78 462.789 116.95 462.789 119.719C462.789 121.538 462.293 123.253 461.301 124.865C460.309 126.518 458.78 127.841 456.713 128.833C454.646 129.866 452.001 130.383 448.777 130.383C444.396 130.383 440.862 129.556 438.175 127.903C435.488 126.291 434.145 123.852 434.145 120.587C434.145 117.818 435.488 115.42 438.175 113.395C437.348 113.023 436.625 112.63 436.005 112.217C435.426 111.804 434.91 111.37 434.455 110.915V109.489L439.849 103.785C437.452 101.677 436.253 98.9697 436.253 95.663C436.253 93.5964 436.749 91.7157 437.741 90.021C438.774 88.3264 440.221 86.983 442.081 85.991C443.941 84.999 446.194 84.503 448.839 84.503C450.575 84.503 452.187 84.751 453.675 85.247H465.331V90.083L460.061 90.455C460.888 92.0257 461.301 93.7617 461.301 95.663C461.301 97.7297 460.805 99.6104 459.813 101.305C458.821 103 457.374 104.343 455.473 105.335C453.613 106.327 451.402 106.823 448.839 106.823ZM448.839 100.747C450.451 100.747 451.774 100.313 452.807 99.445C453.882 98.577 454.419 97.337 454.419 95.725C454.419 94.113 453.882 92.873 452.807 92.005C451.774 91.137 450.451 90.703 448.839 90.703C447.144 90.703 445.78 91.137 444.747 92.005C443.714 92.873 443.197 94.113 443.197 95.725C443.197 97.337 443.714 98.577 444.747 99.445C445.78 100.313 447.144 100.747 448.839 100.747ZM441.399 119.781C441.399 121.31 442.102 122.447 443.507 123.191C444.954 123.976 446.71 124.369 448.777 124.369C450.761 124.369 452.373 123.956 453.613 123.129C454.853 122.344 455.473 121.269 455.473 119.905C455.473 118.789 455.06 117.859 454.233 117.115C453.448 116.371 451.856 115.916 449.459 115.751C447.764 115.627 446.194 115.441 444.747 115.193C443.548 115.854 442.68 116.578 442.143 117.363C441.647 118.148 441.399 118.954 441.399 119.781Z" fill="black"/>
</svg>
