<svg width="194" height="44" viewBox="0 0 194 44" fill="none" xmlns="http://www.w3.org/2000/svg">
<path fill-rule="evenodd" clip-rule="evenodd" d="M151.661 2.5623C151.661 4.061 150.522 5.1246 149.036 5.1246C147.55 5.1246 146.411 4.061 146.411 2.5623C146.411 1.0636 147.55 0 149.036 0C150.522 0 151.661 1.0636 151.661 2.5623ZM151.017 33.9384H146.956V9.28229H151.017V33.9384ZM58.577 13.0532C57.0415 10.6843 54.1686 8.99222 49.9089 8.99222C42.9249 8.99222 37.7736 14.0685 37.7736 21.6103C37.7736 29.6356 42.9249 34.2284 49.9089 34.2284C54.1686 34.2284 56.8929 32.2463 58.577 29.9741L59.1218 33.9384H62.6386V0.0966893H58.577V13.0532ZM50.3052 30.6992C45.3024 30.6992 41.9342 26.9767 41.9342 21.6103C41.9342 16.244 45.3024 12.5214 50.3052 12.5214C55.2584 12.5214 58.6265 16.2924 58.6265 21.707C58.6265 26.9767 55.2584 30.6992 50.3052 30.6992ZM79.4577 34.2284C85.3025 34.2284 89.4632 30.6025 90.4538 25.6713H86.3427C85.5006 28.8621 82.7268 30.6992 79.1605 30.6992C74.3559 30.6992 71.3345 27.4118 71.1859 22.7223V22.3839H90.8005C90.8501 21.8037 90.8996 21.2236 90.8996 20.6918C90.7015 13.3916 86.0455 8.99222 78.9129 8.99222C71.7803 8.99222 66.9261 14.1168 66.9261 21.6103C66.9261 29.1522 71.8793 34.2284 79.4577 34.2284ZM71.4335 19.0964C71.8298 15.0837 75.2475 12.4731 78.9624 12.4731C83.1726 12.4731 86.1445 14.842 86.5408 19.0964H71.4335ZM99.2421 12.6181C100.728 10.7326 103.304 8.99222 107.564 8.99222C113.26 8.99222 117.767 12.038 117.767 20.2083V33.9384H113.705V20.45C113.705 15.3254 111.278 12.6181 106.87 12.6181C102.115 12.6181 99.2421 16.0506 99.2421 21.6103V33.9384H95.1805V9.28229H98.6973L99.2421 12.6181ZM121.552 25.8164C121.651 31.231 126.158 34.2284 132.696 34.2284C138.293 34.2284 142.801 31.3761 142.801 26.7833C142.801 21.3203 138.194 20.2567 132.449 19.5798C128.783 19.1447 126.109 18.8063 126.109 16.099C126.109 13.8267 128.486 12.3764 132.003 12.3764C135.47 12.3764 137.848 14.2619 138.145 16.7758H142.305C141.909 11.6512 137.749 9.04056 132.003 8.99222C126.307 8.94387 122.096 11.8929 122.096 16.389C122.096 21.5136 126.604 22.6256 132.25 23.3024L132.524 23.334C136.149 23.751 138.789 24.0548 138.789 27.0733C138.789 29.3456 136.263 30.8443 132.696 30.8443C128.486 30.8443 125.861 28.7171 125.712 25.8164H121.552ZM158.11 27.5085C158.11 31.8595 159.843 33.9384 164.698 33.9384H169.106V30.3125H165.094C162.914 30.3125 162.171 29.539 162.171 27.4601V12.9082H168.71V9.28229H162.171V2.36892H158.11V9.28229H153.553V12.9082H158.11V27.5085ZM178.364 37.0808L179.602 34.0834L169.745 9.28229H174.055L181.831 28.9588L189.36 9.28229H193.669L182.029 38.0961C180.444 42.0604 179.503 43.6074 175.937 43.6074H171.083V39.9815H174.699C177.027 39.9815 177.423 39.4014 178.364 37.0808ZM3.33935 6.91113H0.441375C0.19761 6.91113 0 7.10649 0 7.34748V10.2124C0 10.4534 0.19761 10.6488 0.441375 10.6488H3.33935C3.58312 10.6488 3.78073 10.4534 3.78073 10.2124V7.34748C3.78073 7.10649 3.58312 6.91113 3.33935 6.91113ZM8.56914 6.91113H5.74956C5.50565 6.91113 5.30819 7.10634 5.30819 7.34748V10.2124C5.30819 10.4536 5.50565 10.6488 5.74956 10.6488H8.56914C8.85661 10.6488 9.08892 10.4191 9.08892 10.1349V7.42786C9.08892 7.14366 8.85661 6.914 8.56914 6.914V6.91113ZM11.0532 6.91113H13.9512C14.1949 6.91113 14.3925 7.10649 14.3925 7.34748V10.2124C14.3925 10.4534 14.1949 10.6488 13.9512 10.6488H11.0532C10.8094 10.6488 10.6118 10.4534 10.6118 10.2124V7.34748C10.6118 7.10649 10.8094 6.91113 11.0532 6.91113ZM19.2594 6.91113H16.3614C16.1176 6.91113 15.92 7.10649 15.92 7.34748V10.2124C15.92 10.4534 16.1176 10.6488 16.3614 10.6488H19.2594C19.5031 10.6488 19.7007 10.4534 19.7007 10.2124V7.34748C19.7007 7.10649 19.5031 6.91113 19.2594 6.91113ZM21.6832 12.1227H24.5812C24.825 12.1227 25.0226 12.3181 25.0226 12.559V15.424C25.0226 15.665 24.825 15.8603 24.5812 15.8603H21.6832C21.4395 15.8603 21.2419 15.665 21.2419 15.424V12.559C21.2419 12.3181 21.4395 12.1227 21.6832 12.1227ZM19.2594 12.1227H16.3614C16.1176 12.1227 15.92 12.3181 15.92 12.559V15.424C15.92 15.665 16.1176 15.8603 16.3614 15.8603H19.2594C19.5031 15.8603 19.7007 15.665 19.7007 15.424V12.559C19.7007 12.3181 19.5031 12.1227 19.2594 12.1227ZM11.0532 12.1227H13.9512C14.1949 12.1227 14.3925 12.3181 14.3925 12.559V15.424C14.3925 15.665 14.1949 15.8603 13.9512 15.8603H11.0532C10.8094 15.8603 10.6118 15.665 10.6118 15.424V12.559C10.6118 12.3181 10.8094 12.1227 11.0532 12.1227ZM8.64754 12.1237H5.82796C5.54049 12.1237 5.30819 12.3534 5.30819 12.6376V15.3447C5.30819 15.6289 5.54049 15.8585 5.82796 15.8585H8.64754C8.89146 15.8585 9.08892 15.6633 9.08892 15.4222V12.5572C9.08892 12.3161 8.89146 12.1209 8.64754 12.1209V12.1237ZM0.441375 12.1227H3.33935C3.58312 12.1227 3.78073 12.3181 3.78073 12.559V15.424C3.78073 15.665 3.58312 15.8603 3.33935 15.8603H0.441375C0.19761 15.8603 0 15.665 0 15.424V12.559C0 12.3181 0.19761 12.1227 0.441375 12.1227ZM3.26095 17.3324H0.519778C0.232712 17.3324 0 17.5625 0 17.8463V20.5562C0 20.84 0.232712 21.0701 0.519778 21.0701H3.26095C3.54802 21.0701 3.78073 20.84 3.78073 20.5562V17.8463C3.78073 17.5625 3.54802 17.3324 3.26095 17.3324ZM5.82796 17.3335H8.64754V17.3306C8.89146 17.3306 9.08892 17.5258 9.08892 17.767V20.6319C9.08892 20.8731 8.89146 21.0683 8.64754 21.0683H5.82796C5.54049 21.0683 5.30819 20.8386 5.30819 20.5544V17.8473C5.30819 17.5631 5.54049 17.3335 5.82796 17.3335ZM13.9512 17.3324H11.0532C10.8094 17.3324 10.6118 17.5278 10.6118 17.7688V20.6337C10.6118 20.8747 10.8094 21.0701 11.0532 21.0701H13.9512C14.1949 21.0701 14.3925 20.8747 14.3925 20.6337V17.7688C14.3925 17.5278 14.1949 17.3324 13.9512 17.3324ZM16.3614 17.3324H19.2594C19.5031 17.3324 19.7007 17.5278 19.7007 17.7688V20.6337C19.7007 20.8747 19.5031 21.0701 19.2594 21.0701H16.3614C16.1176 21.0701 15.92 20.8747 15.92 20.6337V17.7688C15.92 17.5278 16.1176 17.3324 16.3614 17.3324ZM24.5812 17.3324H21.6832C21.4395 17.3324 21.2419 17.5278 21.2419 17.7688V20.6337C21.2419 20.8747 21.4395 21.0701 21.6832 21.0701H24.5812C24.825 21.0701 25.0226 20.8747 25.0226 20.6337V17.7688C25.0226 17.5278 24.825 17.3324 24.5812 17.3324ZM26.9905 17.3324H29.8885C30.1323 17.3324 30.3299 17.5278 30.3299 17.7688V20.6337C30.3299 20.8747 30.1323 21.0701 29.8885 21.0701H26.9905C26.7468 21.0701 26.5491 20.8747 26.5491 20.6337V17.7688C26.5491 17.5278 26.7468 17.3324 26.9905 17.3324ZM29.8885 22.5422H26.9905C26.7468 22.5422 26.5491 22.7375 26.5491 22.9785V25.8435C26.5491 26.0845 26.7468 26.2798 26.9905 26.2798H29.8885C30.1323 26.2798 30.3299 26.0845 30.3299 25.8435V22.9785C30.3299 22.7375 30.1323 22.5422 29.8885 22.5422ZM21.6832 22.5422H24.5812C24.825 22.5422 25.0226 22.7375 25.0226 22.9785V25.8435C25.0226 26.0845 24.825 26.2798 24.5812 26.2798H21.6832C21.4395 26.2798 21.2419 26.0845 21.2419 25.8435V22.9785C21.2419 22.7375 21.4395 22.5422 21.6832 22.5422ZM19.2594 22.5422H16.3614C16.1176 22.5422 15.92 22.7375 15.92 22.9785V25.8435C15.92 26.0845 16.1176 26.2798 16.3614 26.2798H19.2594C19.5031 26.2798 19.7007 26.0845 19.7007 25.8435V22.9785C19.7007 22.7375 19.5031 22.5422 19.2594 22.5422ZM11.0532 22.5422H13.9512C14.1949 22.5422 14.3925 22.7375 14.3925 22.9785V25.8435C14.3925 26.0845 14.1949 26.2798 13.9512 26.2798H11.0532C10.8094 26.2798 10.6118 26.0845 10.6118 25.8435V22.9785C10.6118 22.7375 10.8094 22.5422 11.0532 22.5422ZM8.64754 22.5432H5.82796C5.54049 22.5432 5.30819 22.7729 5.30819 23.0571V25.7641C5.30819 26.0483 5.54049 26.278 5.82796 26.278H8.64754C8.89146 26.278 9.08892 26.0828 9.08892 25.8417V22.9767C9.08892 22.7355 8.89146 22.5403 8.64754 22.5403V22.5432ZM0.441375 22.5422H3.33935C3.58312 22.5422 3.78073 22.7375 3.78073 22.9785V25.8435C3.78073 26.0845 3.58312 26.2798 3.33935 26.2798H0.441375C0.19761 26.2798 0 26.0845 0 25.8435V22.9785C0 22.7375 0.19761 22.5422 0.441375 22.5422ZM3.33935 27.7546H0.441375C0.19761 27.7546 0 27.95 0 28.191V31.0559C0 31.2969 0.19761 31.4923 0.441375 31.4923H3.33935C3.58312 31.4923 3.78073 31.2969 3.78073 31.0559V28.191C3.78073 27.95 3.58312 27.7546 3.33935 27.7546ZM5.74957 27.7402H8.56915V27.7373C8.81306 27.7373 9.01052 27.9325 9.01052 28.1737V31.0386C9.01052 31.2798 8.81306 31.475 8.56915 31.475H5.74957C5.46209 31.475 5.22979 31.2453 5.22979 30.9611V28.254C5.22979 27.9698 5.46209 27.7402 5.74957 27.7402ZM13.9512 27.7546H11.0532C10.8094 27.7546 10.6118 27.95 10.6118 28.191V31.0559C10.6118 31.2969 10.8094 31.4923 11.0532 31.4923H13.9512C14.1949 31.4923 14.3925 31.2969 14.3925 31.0559V28.191C14.3925 27.95 14.1949 27.7546 13.9512 27.7546ZM16.3614 27.7546H19.2594C19.5031 27.7546 19.7007 27.95 19.7007 28.191V31.0559C19.7007 31.2969 19.5031 31.4923 19.2594 31.4923H16.3614C16.1176 31.4923 15.92 31.2969 15.92 31.0559V28.191C15.92 27.95 16.1176 27.7546 16.3614 27.7546ZM24.5812 27.7546H21.6832C21.4395 27.7546 21.2419 27.95 21.2419 28.191V31.0559C21.2419 31.2969 21.4395 31.4923 21.6832 31.4923H24.5812C24.825 31.4923 25.0226 31.2969 25.0226 31.0559V28.191C25.0226 27.95 24.825 27.7546 24.5812 27.7546ZM16.3614 32.9616H19.2594C19.5031 32.9616 19.7007 33.157 19.7007 33.398V36.2629C19.7007 36.5039 19.5031 36.6993 19.2594 36.6993H16.3614C16.1176 36.6993 15.92 36.5039 15.92 36.2629V33.398C15.92 33.157 16.1176 32.9616 16.3614 32.9616ZM13.9512 32.9616H11.0532C10.8094 32.9616 10.6118 33.157 10.6118 33.398V36.2629C10.6118 36.5039 10.8094 36.6993 11.0532 36.6993H13.9512C14.1949 36.6993 14.3925 36.5039 14.3925 36.2629V33.398C14.3925 33.157 14.1949 32.9616 13.9512 32.9616ZM5.82796 32.9618H8.64754V32.9589C8.89146 32.9589 9.08892 33.1541 9.08892 33.3952V36.2602C9.08892 36.5013 8.89146 36.6966 8.64754 36.6966H5.82796C5.54049 36.6966 5.30819 36.4669 5.30819 36.1827V33.4756C5.30819 33.1914 5.54049 32.9618 5.82796 32.9618ZM3.33935 32.9616H0.441375C0.19761 32.9616 0 33.157 0 33.398V36.2629C0 36.5039 0.19761 36.6993 0.441375 36.6993H3.33935C3.58312 36.6993 3.78073 36.5039 3.78073 36.2629V33.398C3.78073 33.157 3.58312 32.9616 3.33935 32.9616Z" fill="#E2FF6F"/>
</svg>
